<?xml version="1.0" standalone="no"?><!DOCTYPE svg PUBLIC "-//W3C//DTD SVG 1.1//EN" "http://www.w3.org/Graphics/SVG/1.1/DTD/svg11.dtd"><svg t="1667284759256" class="icon" viewBox="0 0 1024 1024" version="1.1" xmlns="http://www.w3.org/2000/svg" p-id="908" xmlns:xlink="http://www.w3.org/1999/xlink" width="32" height="32"><path d="M796.444444 0H227.555556A227.555556 227.555556 0 0 0 0 227.555556v568.888888a227.555556 227.555556 0 0 0 227.555556 227.555556h568.888888a227.555556 227.555556 0 0 0 227.555556-227.555556V227.555556a227.555556 227.555556 0 0 0-227.555556-227.555556z m87.267556 443.733333l-219.136 169.301334a112.184889 112.184889 0 0 1-149.390222-10.808889L423.537778 507.448889l-195.640889 177.436444a68.266667 68.266667 0 1 1-91.704889-101.148444l213.048889-193.422222a111.729778 111.729778 0 0 1 156.16 5.12l92.842667 96.085333 201.955555-155.875556a68.266667 68.266667 0 1 1 83.512889 108.088889z" fill="#d14641" p-id="909"></path></svg>